<svg width="39" height="20" viewBox="0 0 39 20" fill="none" xmlns="http://www.w3.org/2000/svg">
<path d="M9.218 19.364C6.53133 19.364 4.434 18.6273 2.926 17.154C1.418 15.6807 0.664 13.592 0.664 10.888V0.799999H5.812V10.732C5.812 12.292 6.11533 13.41 6.722 14.086C7.346 14.762 8.19533 15.1 9.27 15.1C10.3447 15.1 11.1853 14.762 11.792 14.086C12.3987 13.41 12.702 12.292 12.702 10.732V0.799999H17.772V10.888C17.772 13.592 17.018 15.6807 15.51 17.154C14.002 18.6273 11.9047 19.364 9.218 19.364Z" fill="black"/>
<path d="M21.7795 19V0.799999H30.0995C31.7635 0.799999 33.1935 1.06867 34.3895 1.606C35.6028 2.14333 36.5388 2.92333 37.1975 3.946C37.8561 4.95133 38.1855 6.14733 38.1855 7.534C38.1855 8.90333 37.8561 10.0907 37.1975 11.096C36.5388 12.1013 35.6028 12.8813 34.3895 13.436C33.1935 13.9733 31.7635 14.242 30.0995 14.242H24.6395L26.9275 12.006V19H21.7795ZM26.9275 12.552L24.6395 10.186H29.7875C30.8621 10.186 31.6595 9.952 32.1795 9.484C32.7168 9.016 32.9855 8.366 32.9855 7.534C32.9855 6.68467 32.7168 6.026 32.1795 5.558C31.6595 5.09 30.8621 4.856 29.7875 4.856H24.6395L26.9275 2.49V12.552Z" fill="#2696E8"/>
</svg>
