<svg width="25" height="18" viewBox="0 0 25 18" fill="none" xmlns="http://www.w3.org/2000/svg">
<path d="M1.37218 18C0.457394 15.3333 0 12.6889 0 10.0667C0 7.04444 0.784103 4.62222 2.35231 2.8C3.92052 0.933334 6.20748 0 9.21321 0V4.2C6.90446 4.2 5.75009 5.71111 5.75009 8.73334V9.73333H9.93197V18H1.37218Z" fill="#2696E8"/>
<path d="M16.4402 18C15.5254 15.3333 15.068 12.6889 15.068 10.0667C15.068 7.04444 15.8521 4.62222 17.4203 2.8C18.9885 0.933334 21.2755 0 24.2812 0V4.2C21.9725 4.2 20.8181 5.71111 20.8181 8.73334V9.73333H25V18H16.4402Z" fill="#2696E8"/>
</svg>
